<?xml version="1.0" standalone="no"?>
<!DOCTYPE svg PUBLIC "-//W3C//DTD SVG 20010904//EN"
 "http://www.w3.org/TR/2001/REC-SVG-20010904/DTD/svg10.dtd">
<svg version="1.0" xmlns="http://www.w3.org/2000/svg"
 width="1024.000000pt" height="883.000000pt" viewBox="0 0 1024.000000 883.000000"
 preserveAspectRatio="xMidYMid meet">

<g transform="translate(0.000000,883.000000) scale(0.100000,-0.100000)"
fill="#000000" stroke="none">
<path d="M300 8731 c-80 -26 -157 -100 -178 -169 -53 -176 67 -342 247 -342
66 0 117 19 167 63 67 59 89 107 89 197 0 54 -6 85 -19 110 -26 49 -74 98
-121 122 -43 22 -144 33 -185 19z"/>
<path d="M1105 8725 c-139 -51 -205 -214 -145 -353 41 -95 130 -151 241 -152
109 0 195 55 240 155 25 54 25 157 0 211 -22 49 -79 106 -129 130 -48 24 -155
28 -207 9z"/>
<path d="M1945 8727 c-78 -30 -137 -88 -164 -160 -6 -16 -11 -56 -11 -90 1
-149 110 -257 259 -257 154 0 263 107 264 261 1 55 -4 74 -29 120 -35 61 -96
113 -152 129 -48 13 -129 12 -167 -3z"/>
<path d="M2790 8731 c-69 -21 -131 -74 -166 -141 -26 -49 -26 -171 1 -224 45
-93 130 -145 236 -146 109 0 195 55 240 155 25 53 25 157 0 210 -51 113 -196
181 -311 146z"/>
<path d="M5265 8724 c-87 -31 -158 -121 -171 -218 -14 -101 54 -219 151 -265
97 -46 233 -17 304 64 47 54 64 100 65 175 1 145 -118 262 -263 259 -25 0 -64
-7 -86 -15z"/>
<path d="M6096 8726 c-53 -20 -84 -44 -123 -95 -83 -108 -65 -254 41 -348 98
-86 244 -86 342 0 67 59 89 107 89 197 0 54 -6 85 -19 110 -26 49 -74 98 -121
122 -52 27 -156 34 -209 14z"/>
<path d="M6927 8726 c-78 -28 -133 -86 -161 -169 -20 -59 -20 -90 -1 -153 45
-152 229 -230 373 -158 114 57 168 189 130 316 -16 55 -83 126 -143 154 -57
27 -138 31 -198 10z"/>
<path d="M7765 8727 c-80 -32 -137 -88 -164 -160 -31 -83 0 -218 65 -279 68
-63 195 -87 278 -53 49 21 113 80 139 129 29 54 30 174 3 226 -26 49 -74 98
-121 122 -48 25 -156 33 -200 15z"/>
<path d="M3585 8711 c-60 -27 -121 -99 -140 -166 -48 -163 76 -325 250 -325
267 1 352 365 113 484 -65 32 -161 35 -223 7z"/>
<path d="M4402 8704 c-156 -78 -187 -287 -61 -413 44 -45 83 -62 150 -68 88
-8 144 11 205 71 108 105 109 260 2 366 -74 75 -198 93 -296 44z"/>
<path d="M8562 8704 c-239 -119 -154 -483 113 -484 114 0 218 76 250 184 19
62 19 80 -1 145 -18 63 -81 136 -139 162 -62 28 -158 25 -223 -7z"/>
<path d="M9411 8716 c-53 -19 -111 -74 -137 -130 -80 -172 43 -366 230 -366
147 1 256 110 256 255 0 105 -63 201 -157 240 -42 18 -144 18 -192 1z"/>
<path d="M375 7989 c-91 -45 -145 -132 -145 -234 0 -145 109 -254 256 -255
187 0 310 194 230 366 -27 59 -90 116 -145 132 -60 18 -150 14 -196 -9z"/>
<path d="M1199 7982 c-153 -80 -186 -280 -67 -402 53 -56 108 -80 183 -80 143
0 257 110 258 250 1 74 -18 125 -67 178 -55 60 -104 82 -187 82 -54 0 -77 -5
-120 -28z"/>
<path d="M2035 7989 c-91 -45 -145 -132 -145 -234 1 -145 111 -255 255 -255
188 0 311 194 231 366 -27 59 -90 116 -145 132 -60 18 -150 14 -196 -9z"/>
<path d="M2855 7982 c-182 -100 -180 -358 4 -454 144 -75 321 1 367 158 35
123 -24 252 -141 305 -64 29 -168 25 -230 -9z"/>
<path d="M3695 7989 c-91 -45 -145 -132 -145 -234 1 -147 111 -255 259 -255
77 0 131 21 179 70 127 127 97 336 -60 414 -67 33 -172 36 -233 5z"/>
<path d="M4515 7982 c-182 -100 -180 -358 4 -454 103 -54 246 -29 317 55 87
103 85 257 -4 350 -76 81 -219 103 -317 49z"/>
<path d="M5365 7991 c-50 -22 -99 -71 -127 -125 -30 -57 -30 -165 0 -222 54
-104 131 -154 240 -154 75 0 116 16 172 67 57 50 84 111 83 189 -1 152 -112
264 -262 264 -42 0 -81 -7 -106 -19z"/>
<path d="M6222 7987 c-44 -14 -118 -81 -143 -129 -43 -84 -35 -177 24 -264 94
-141 320 -141 414 0 81 119 65 249 -41 343 -25 22 -62 45 -84 51 -47 14 -125
14 -170 -1z"/>
<path d="M7019 7972 c-187 -98 -184 -370 6 -458 58 -28 156 -32 209 -10 51 21
117 86 139 136 24 54 26 148 4 201 -57 138 -227 200 -358 131z"/>
<path d="M7872 7985 c-123 -53 -186 -188 -149 -316 33 -111 127 -179 247 -179
51 0 78 6 118 26 196 98 182 384 -23 470 -44 18 -150 18 -193 -1z"/>
<path d="M8682 7974 c-190 -94 -188 -372 3 -460 102 -48 243 -22 309 57 112
133 78 322 -73 401 -73 39 -164 39 -239 2z"/>
<path d="M9525 7981 c-50 -22 -99 -70 -128 -125 -48 -90 -20 -238 58 -304 77
-64 205 -83 291 -41 49 23 110 86 130 135 34 81 8 211 -54 278 -67 71 -207 98
-297 57z"/>
<path d="M396 7195 c-166 -59 -221 -277 -104 -410 52 -59 116 -89 193 -89 192
0 316 205 227 375 -60 115 -194 168 -316 124z"/>
<path d="M1205 7186 c-134 -62 -187 -215 -121 -349 96 -196 379 -188 470 13
24 54 26 148 4 201 -41 95 -138 159 -243 159 -42 0 -75 -7 -110 -24z"/>
<path d="M2045 7191 c-101 -46 -155 -130 -155 -241 0 -82 22 -132 83 -187 142
-130 370 -68 424 116 18 65 13 133 -16 189 -26 51 -99 115 -149 130 -57 17
-141 14 -187 -7z"/>
<path d="M2865 7186 c-93 -43 -148 -128 -149 -231 -2 -230 280 -348 443 -184
70 70 96 193 59 280 -41 95 -138 159 -243 159 -42 0 -75 -7 -110 -24z"/>
<path d="M3712 7197 c-44 -14 -118 -81 -143 -129 -62 -122 -12 -281 110 -342
111 -57 218 -40 305 47 131 132 91 341 -79 418 -45 21 -139 24 -193 6z"/>
<path d="M4524 7186 c-97 -45 -164 -162 -150 -264 8 -57 52 -138 93 -169 42
-32 124 -63 168 -63 45 0 123 30 169 65 53 40 91 125 90 200 -1 71 -19 117
-65 170 -73 83 -202 109 -305 61z"/>
<path d="M5376 7195 c-95 -34 -166 -133 -166 -232 0 -87 18 -131 80 -195 44
-45 66 -60 113 -73 186 -54 366 108 326 294 -35 162 -202 260 -353 206z"/>
<path d="M6223 7186 c-176 -57 -234 -294 -103 -424 72 -72 166 -96 264 -68 78
23 148 91 170 167 20 65 20 92 1 155 -40 136 -195 215 -332 170z"/>
<path d="M7060 7189 c-41 -13 -101 -55 -130 -92 -46 -59 -62 -159 -38 -239 15
-50 78 -122 132 -151 58 -30 174 -31 231 0 115 61 170 191 133 315 -15 50 -79
123 -131 150 -48 24 -145 32 -197 17z"/>
<path d="M7883 7186 c-176 -57 -234 -294 -103 -424 72 -72 166 -96 264 -68
103 30 186 140 186 246 0 86 -65 192 -143 232 -52 26 -147 33 -204 14z"/>
<path d="M8709 7186 c-84 -30 -149 -102 -169 -187 -33 -135 57 -279 194 -310
145 -32 284 57 315 202 19 88 -22 200 -92 253 -69 53 -171 70 -248 42z"/>
<path d="M9536 7186 c-100 -37 -166 -134 -166 -242 0 -106 42 -180 128 -227
108 -59 227 -43 312 43 126 125 93 332 -64 412 -52 27 -157 34 -210 14z"/>
<path d="M400 6395 c-58 -18 -113 -64 -148 -123 -23 -40 -27 -58 -27 -122 0
-83 15 -122 69 -178 67 -72 161 -96 260 -68 103 30 186 140 186 246 0 104 -82
215 -181 244 -63 19 -99 19 -159 1z"/>
<path d="M1240 6401 c-52 -17 -89 -42 -127 -85 -111 -126 -72 -318 81 -399 58
-30 174 -30 231 0 47 25 95 74 121 123 27 52 26 172 -3 226 -24 45 -76 94
-125 120 -36 19 -140 28 -178 15z"/>
<path d="M2070 6401 c-46 -15 -85 -39 -116 -73 -54 -57 -69 -95 -69 -178 0
-83 15 -121 69 -178 53 -57 101 -77 186 -77 64 0 82 4 128 29 89 49 132 124
132 228 -1 102 -51 183 -144 230 -44 22 -145 33 -186 19z"/>
<path d="M2886 6394 c-94 -30 -176 -143 -176 -244 0 -86 57 -180 138 -228 40
-23 58 -27 122 -27 90 1 138 22 197 89 138 157 34 408 -176 422 -33 2 -76 -2
-105 -12z"/>
<path d="M3720 6395 c-58 -19 -113 -64 -148 -123 -23 -40 -27 -58 -27 -122 0
-83 15 -122 69 -178 53 -57 101 -77 186 -77 64 0 82 4 128 29 89 49 132 124
132 228 0 74 -22 127 -71 176 -70 71 -177 97 -269 67z"/>
<path d="M4541 6393 c-65 -23 -136 -98 -155 -164 -20 -65 -20 -92 -1 -155 66
-222 376 -248 482 -40 72 139 -2 317 -151 361 -62 19 -118 18 -175 -2z"/>
<path d="M5405 6401 c-119 -31 -195 -129 -195 -251 0 -232 263 -355 432 -202
168 152 72 436 -154 456 -29 3 -66 2 -83 -3z"/>
<path d="M6220 6385 c-142 -44 -219 -213 -158 -346 45 -97 118 -149 220 -157
107 -8 205 46 252 140 70 141 -7 319 -158 363 -60 18 -97 18 -156 0z"/>
<path d="M7070 6391 c-95 -29 -161 -93 -187 -180 -49 -168 75 -331 252 -331
232 0 346 281 180 443 -62 61 -170 90 -245 68z"/>
<path d="M7882 6381 c-111 -38 -171 -123 -172 -244 -1 -270 357 -358 482 -118
74 141 -1 320 -153 365 -67 20 -91 20 -157 -3z"/>
<path d="M8739 6393 c-15 -2 -51 -19 -80 -36 -138 -83 -167 -267 -60 -389 126
-143 362 -105 437 71 23 53 22 147 -3 201 -48 109 -174 174 -294 153z"/>
<path d="M9534 6380 c-104 -41 -163 -129 -164 -243 0 -148 108 -257 255 -257
177 0 301 163 252 331 -42 143 -206 223 -343 169z"/>
<path d="M362 5574 c-65 -32 -108 -84 -129 -153 -62 -212 153 -400 352 -307
166 77 203 287 73 416 -74 75 -198 93 -296 44z"/>
<path d="M1195 5578 c-94 -48 -145 -131 -145 -233 1 -147 111 -255 259 -255
78 0 132 22 183 72 125 126 93 334 -64 412 -68 34 -172 36 -233 4z"/>
<path d="M2025 5578 c-148 -76 -189 -254 -90 -389 91 -126 302 -134 401 -16
114 135 67 347 -92 413 -52 22 -171 17 -219 -8z"/>
<path d="M2865 5581 c-95 -43 -165 -168 -151 -269 8 -58 51 -137 96 -173 36
-31 114 -59 160 -59 52 0 131 31 171 67 52 47 80 103 86 172 10 110 -40 203
-136 253 -66 35 -162 38 -226 9z"/>
<path d="M3730 5591 c-46 -15 -85 -39 -116 -73 -54 -57 -69 -95 -69 -179 0
-67 3 -81 30 -124 76 -123 221 -168 343 -106 92 47 141 127 142 229 0 103 -44
179 -131 227 -55 29 -151 42 -199 26z"/>
<path d="M4547 5586 c-78 -28 -139 -92 -163 -173 -29 -94 -6 -182 65 -253 74
-74 163 -96 267 -65 149 44 223 222 151 361 -59 116 -199 173 -320 130z"/>
<path d="M5389 5587 c-60 -22 -105 -55 -132 -94 -37 -55 -47 -87 -47 -156 0
-75 23 -129 75 -182 54 -53 107 -75 186 -75 213 0 332 237 205 410 -62 86
-197 131 -287 97z"/>
<path d="M6182 5564 c-188 -94 -188 -364 0 -458 99 -49 238 -27 310 50 95 102
88 283 -15 370 -83 70 -201 85 -295 38z"/>
<path d="M7025 5571 c-80 -37 -141 -121 -152 -209 -11 -100 46 -207 136 -254
43 -23 66 -28 122 -28 84 0 123 15 183 70 54 50 81 114 80 190 -2 97 -55 180
-145 226 -61 31 -164 33 -224 5z"/>
<path d="M7860 5569 c-98 -44 -150 -127 -150 -237 0 -235 272 -350 438 -184
76 77 96 201 46 300 -61 123 -210 177 -334 121z"/>
<path d="M8717 5576 c-100 -37 -169 -119 -182 -217 -31 -221 237 -372 417
-236 115 87 135 253 44 372 -56 72 -194 113 -279 81z"/>
<path d="M9549 5576 c-82 -29 -140 -84 -168 -159 -21 -55 -13 -149 17 -208
113 -224 459 -161 489 90 21 183 -168 338 -338 277z"/>
<path d="M420 4786 c-94 -25 -156 -82 -186 -171 -33 -95 -2 -200 80 -272 139
-122 359 -57 411 122 43 146 -46 292 -196 324 -58 13 -52 13 -109 -3z"/>
<path d="M1230 4785 c-148 -47 -223 -225 -154 -363 48 -97 135 -147 243 -140
76 5 130 27 176 75 90 93 99 233 22 335 -64 84 -189 125 -287 93z"/>
<path d="M2060 4785 c-58 -18 -113 -64 -148 -123 -23 -40 -27 -58 -27 -122 0
-86 19 -133 73 -187 158 -159 441 -46 442 176 0 84 -18 130 -76 188 -76 76
-164 99 -264 68z"/>
<path d="M2893 4781 c-70 -24 -113 -59 -146 -119 -37 -67 -43 -125 -23 -196
45 -153 222 -231 364 -160 165 82 191 308 50 428 -42 36 -119 66 -167 66 -14
-1 -49 -9 -78 -19z"/>
<path d="M3722 4781 c-116 -40 -177 -125 -177 -246 1 -85 23 -134 89 -192 163
-144 425 -29 426 186 0 84 -18 130 -76 188 -38 38 -65 55 -104 67 -68 20 -92
20 -158 -3z"/>
<path d="M4547 4781 c-69 -28 -109 -62 -140 -119 -37 -67 -43 -125 -23 -196
68 -232 398 -250 494 -27 22 53 20 147 -4 201 -57 124 -207 189 -327 141z"/>
<path d="M5412 4790 c-55 -12 -103 -41 -145 -91 -88 -102 -73 -267 33 -362 56
-52 96 -67 173 -67 84 0 156 35 202 99 77 105 70 237 -15 334 -65 74 -156 105
-248 87z"/>
<path d="M6182 4754 c-61 -30 -105 -80 -127 -143 -59 -172 62 -341 245 -341
228 0 343 253 194 429 -68 81 -210 106 -312 55z"/>
<path d="M7025 4761 c-50 -22 -99 -70 -128 -125 -16 -31 -21 -58 -21 -111 0
-79 20 -130 76 -185 49 -49 102 -70 181 -70 82 0 141 25 193 82 49 54 67 101
67 173 1 101 -66 202 -159 241 -48 20 -160 18 -209 -5z"/>
<path d="M7853 4759 c-49 -24 -109 -87 -129 -135 -18 -43 -18 -155 0 -198 21
-50 80 -111 131 -135 31 -14 65 -21 107 -21 149 0 258 108 258 255 0 148 -108
255 -257 255 -49 0 -80 -6 -110 -21z"/>
<path d="M8690 4764 c-46 -20 -106 -79 -133 -129 -29 -56 -29 -164 0 -221 25
-48 92 -110 139 -130 51 -21 156 -18 209 7 51 24 110 85 133 138 20 46 20 146
0 192 -23 53 -82 114 -133 138 -54 25 -162 28 -215 5z"/>
<path d="M9513 4759 c-49 -24 -109 -87 -129 -135 -18 -43 -18 -155 0 -198 21
-50 80 -111 131 -135 31 -15 65 -21 110 -21 107 0 181 43 231 132 24 44 29 64
29 123 0 152 -106 255 -262 255 -49 0 -80 -6 -110 -21z"/>
<path d="M382 3972 c-121 -48 -186 -185 -149 -313 33 -111 127 -179 246 -179
104 1 185 49 230 139 106 207 -110 439 -327 353z"/>
<path d="M1192 3964 c-196 -97 -187 -385 15 -469 58 -25 160 -20 221 11 192
96 185 376 -12 465 -63 28 -159 26 -224 -7z"/>
<path d="M2034 3971 c-84 -38 -141 -119 -151 -214 -10 -103 40 -199 132 -249
41 -23 63 -28 123 -28 83 0 123 14 177 61 140 123 103 351 -70 430 -54 25
-157 25 -211 0z"/>
<path d="M2852 3964 c-91 -45 -142 -127 -142 -229 0 -149 108 -255 258 -255
235 0 350 272 184 438 -77 76 -201 96 -300 46z"/>
<path d="M3685 3966 c-56 -25 -110 -81 -132 -135 -21 -49 -20 -147 1 -196 22
-52 80 -112 131 -136 49 -23 161 -25 210 -5 125 52 187 183 150 313 -13 46
-28 69 -68 108 -81 79 -192 98 -292 51z"/>
<path d="M4512 3964 c-163 -81 -193 -304 -57 -423 54 -47 94 -61 174 -61 56 0
79 5 122 28 156 81 186 285 61 410 -77 76 -201 96 -300 46z"/>
<path d="M5374 3977 c-75 -29 -132 -87 -160 -164 -42 -118 16 -252 137 -318
140 -76 314 -5 365 148 42 126 -26 268 -156 326 -51 23 -136 27 -186 8z"/>
<path d="M6230 3971 c-45 -14 -84 -39 -116 -73 -54 -56 -69 -95 -69 -178 0
-64 4 -82 27 -122 36 -61 91 -105 152 -123 63 -19 90 -19 155 1 142 42 222
217 162 351 -52 113 -194 179 -311 144z"/>
<path d="M7060 3971 c-101 -31 -175 -118 -187 -220 -14 -121 66 -243 183 -277
228 -66 418 169 303 377 -28 51 -94 104 -147 119 -42 11 -115 12 -152 1z"/>
<path d="M7890 3971 c-45 -14 -84 -39 -116 -73 -54 -56 -69 -95 -69 -178 0
-64 4 -82 27 -122 36 -61 91 -105 152 -123 63 -19 90 -19 155 1 142 42 222
217 162 351 -52 113 -194 179 -311 144z"/>
<path d="M8697 3965 c-131 -50 -196 -189 -155 -329 19 -63 100 -140 167 -160
68 -20 94 -20 157 -1 61 18 116 62 152 123 23 40 27 58 27 122 0 107 -47 185
-140 232 -51 27 -156 33 -208 13z"/>
<path d="M9534 3967 c-114 -43 -182 -150 -171 -267 6 -71 35 -128 88 -173 77
-66 167 -82 262 -47 182 68 226 322 77 440 -71 56 -179 76 -256 47z"/>
<path d="M392 3176 c-87 -29 -150 -101 -171 -198 -23 -103 31 -217 129 -272
47 -27 65 -31 125 -30 80 0 130 21 182 76 151 157 50 419 -166 434 -32 2 -75
-2 -99 -10z"/>
<path d="M1217 3176 c-20 -8 -52 -25 -71 -40 -128 -97 -139 -273 -26 -387 132
-132 353 -88 426 86 24 57 18 152 -12 214 -56 112 -199 169 -317 127z"/>
<path d="M2046 3176 c-58 -22 -108 -66 -141 -127 -103 -190 69 -416 283 -371
235 49 285 348 79 476 -57 35 -158 45 -221 22z"/>
<path d="M2891 3179 c-73 -22 -142 -88 -170 -162 -6 -16 -11 -56 -11 -90 0
-72 22 -127 71 -175 166 -167 439 -56 439 178 0 177 -159 297 -329 249z"/>
<path d="M3712 3176 c-87 -29 -150 -101 -171 -198 -31 -139 79 -287 226 -305
120 -14 244 65 277 178 20 65 20 92 1 155 -40 136 -195 215 -333 170z"/>
<path d="M4551 3179 c-74 -23 -143 -88 -170 -162 -17 -45 -13 -147 8 -192 23
-50 72 -100 125 -128 32 -17 59 -22 116 -22 85 0 133 20 186 77 54 57 69 95
69 178 0 54 -6 85 -19 110 -26 49 -74 98 -121 122 -46 24 -144 32 -194 17z"/>
<path d="M5390 3181 c-45 -14 -84 -39 -116 -73 -54 -56 -69 -95 -69 -178 0
-65 4 -82 29 -128 134 -241 486 -155 486 118 0 82 -32 153 -93 205 -63 54
-165 78 -237 56z"/>
<path d="M6224 3169 c-110 -32 -190 -140 -188 -253 2 -100 45 -172 133 -224
40 -23 57 -27 127 -27 72 0 86 3 129 30 66 41 111 102 125 170 39 189 -142
358 -326 304z"/>
<path d="M7060 3171 c-118 -36 -189 -131 -190 -252 0 -84 35 -158 98 -206 105
-79 259 -67 348 29 54 56 69 95 69 178 0 64 -4 82 -27 122 -62 105 -192 161
-298 129z"/>
<path d="M7866 3160 c-58 -23 -109 -69 -139 -125 -28 -53 -30 -173 -4 -226 23
-47 79 -103 126 -126 54 -27 173 -24 227 4 79 42 144 147 144 233 0 62 -31
132 -80 180 -76 77 -176 98 -274 60z"/>
<path d="M8720 3171 c-78 -24 -157 -99 -178 -169 -55 -184 81 -356 267 -339
68 6 124 32 167 79 54 56 69 95 69 178 0 64 -4 82 -27 122 -62 105 -192 161
-298 129z"/>
<path d="M9534 3164 c-55 -20 -120 -76 -147 -128 -28 -54 -31 -174 -4 -227 23
-47 79 -103 126 -126 51 -25 173 -25 225 1 52 26 104 79 127 130 21 47 25 130
7 188 -15 50 -79 123 -131 150 -53 27 -148 33 -203 12z"/>
<path d="M417 2379 c-54 -13 -87 -32 -129 -76 -50 -51 -71 -105 -71 -178 1
-228 276 -340 437 -179 77 76 98 192 52 289 -51 110 -176 172 -289 144z"/>
<path d="M1233 2376 c-160 -50 -237 -222 -164 -364 98 -190 378 -188 467 3 31
66 33 161 4 221 -30 61 -98 120 -161 138 -62 19 -90 19 -146 2z"/>
<path d="M2044 2369 c-126 -48 -197 -185 -160 -311 57 -198 315 -254 449 -97
122 142 61 349 -122 414 -57 20 -105 18 -167 -6z"/>
<path d="M2898 2376 c-26 -7 -55 -19 -65 -26 -86 -65 -123 -133 -123 -226 0
-131 96 -239 232 -259 97 -15 212 47 261 139 30 58 31 174 0 232 -61 114 -188
173 -305 140z"/>
<path d="M3730 2371 c-45 -14 -84 -39 -116 -73 -54 -56 -69 -95 -69 -178 0
-64 4 -82 27 -122 73 -123 224 -171 345 -109 47 23 109 90 129 137 24 56 18
152 -12 213 -53 106 -192 166 -304 132z"/>
<path d="M4560 2371 c-86 -28 -152 -95 -177 -180 -40 -139 49 -290 191 -322
71 -16 131 -5 197 34 168 100 166 336 -4 441 -37 23 -61 29 -114 32 -38 2 -79
0 -93 -5z"/>
<path d="M5388 2367 c-109 -35 -178 -130 -178 -246 0 -152 106 -260 255 -261
148 0 254 108 255 261 0 176 -165 299 -332 246z"/>
<path d="M6193 2355 c-52 -22 -120 -92 -140 -143 -38 -100 -13 -212 62 -281
57 -53 104 -71 181 -71 80 0 138 26 193 85 38 42 71 120 71 170 0 86 -71 194
-154 235 -50 24 -163 27 -213 5z"/>
<path d="M7015 2349 c-94 -47 -145 -129 -145 -234 0 -149 107 -255 258 -255
57 0 80 5 123 28 182 95 181 365 -2 456 -68 33 -172 36 -234 5z"/>
<path d="M7842 2344 c-160 -79 -190 -287 -61 -416 124 -124 331 -91 417 67 24
43 23 178 -1 226 -25 50 -84 108 -132 130 -62 28 -158 25 -223 -7z"/>
<path d="M8710 2355 c-128 -41 -204 -186 -166 -316 39 -136 175 -213 315 -179
131 31 218 168 190 300 -32 150 -193 243 -339 195z"/>
<path d="M9554 2359 c-153 -44 -230 -223 -158 -367 82 -165 308 -191 428 -50
36 42 66 118 66 168 0 15 -7 50 -16 79 -38 128 -189 208 -320 170z"/>
<path d="M425 1571 c-93 -24 -162 -87 -191 -174 -39 -118 16 -248 131 -310 57
-31 173 -30 231 0 182 96 186 358 8 455 -53 29 -131 42 -179 29z"/>
<path d="M1230 1565 c-104 -32 -180 -138 -180 -250 1 -234 293 -343 451 -168
127 141 65 364 -115 418 -60 18 -97 18 -156 0z"/>
<path d="M2060 1565 c-58 -18 -113 -64 -148 -123 -23 -40 -27 -58 -27 -122 0
-85 20 -133 76 -188 44 -43 94 -65 161 -70 188 -14 321 156 266 340 -18 61
-89 133 -154 157 -63 24 -110 25 -174 6z"/>
<path d="M2904 1569 c-93 -27 -177 -124 -190 -221 -13 -97 49 -213 140 -261
56 -29 174 -31 230 -3 50 25 97 72 122 122 28 56 26 174 -3 230 -56 106 -189
165 -299 133z"/>
<path d="M3716 1564 c-66 -21 -137 -93 -161 -163 -68 -205 130 -396 336 -326
131 45 199 187 157 329 -19 63 -100 140 -167 160 -66 19 -101 19 -165 0z"/>
<path d="M4564 1569 c-93 -27 -177 -124 -190 -221 -13 -97 49 -212 140 -261
32 -17 58 -22 122 -22 72 0 86 3 129 30 66 41 111 102 125 170 39 189 -142
358 -326 304z"/>
<path d="M5407 1569 c-58 -14 -91 -34 -134 -83 -96 -109 -82 -273 30 -372 194
-171 486 19 413 268 -19 67 -88 149 -144 171 -52 21 -120 28 -165 16z"/>
<path d="M6182 1534 c-192 -96 -185 -376 12 -465 63 -28 159 -26 224 7 153 76
191 284 74 407 -75 80 -209 102 -310 51z"/>
<path d="M7009 1532 c-121 -62 -172 -220 -110 -339 25 -50 86 -108 133 -128
21 -8 66 -15 100 -15 147 0 260 109 261 250 1 74 -18 125 -67 178 -56 61 -104
82 -192 82 -59 0 -81 -5 -125 -28z"/>
<path d="M7855 1541 c-50 -23 -109 -84 -130 -133 -19 -46 -20 -157 -1 -202 38
-92 137 -156 241 -156 146 0 254 109 255 255 0 103 -64 203 -156 241 -49 20
-161 18 -209 -5z"/>
<path d="M8685 1541 c-117 -53 -176 -183 -140 -308 13 -46 28 -69 68 -108 58
-56 105 -75 188 -75 99 0 197 67 237 159 19 45 20 134 3 185 -18 51 -85 124
-136 147 -54 25 -166 25 -220 0z"/>
<path d="M9515 1541 c-50 -23 -109 -84 -130 -133 -19 -46 -20 -157 -1 -202 69
-164 297 -209 425 -84 125 122 95 331 -58 410 -67 35 -172 39 -236 9z"/>
<path d="M374 751 c-250 -114 -171 -491 103 -491 35 0 80 7 101 15 47 20 108
78 135 130 29 56 29 164 -1 221 -27 54 -100 117 -150 132 -58 18 -141 14 -188
-7z"/>
<path d="M1192 744 c-91 -45 -142 -127 -142 -229 0 -148 109 -255 261 -255
182 0 302 169 244 341 -49 144 -223 213 -363 143z"/>
<path d="M2022 744 c-243 -121 -154 -484 117 -484 153 0 261 106 261 255 0
149 -108 255 -261 255 -50 0 -77 -6 -117 -26z"/>
<path d="M2880 757 c-57 -18 -135 -103 -154 -166 -20 -68 -20 -94 0 -160 21
-72 90 -141 163 -166 205 -68 396 130 326 336 -35 103 -131 170 -239 168 -34
-1 -77 -6 -96 -12z"/>
<path d="M3716 754 c-67 -21 -137 -93 -161 -163 -20 -62 -16 -140 10 -192 124
-246 495 -164 495 108 0 76 -16 117 -66 173 -71 79 -176 107 -278 74z"/>
<path d="M4550 755 c-127 -40 -205 -186 -166 -316 19 -66 62 -120 124 -157 41
-23 58 -27 128 -27 72 0 86 3 129 30 200 124 160 413 -65 475 -47 13 -96 11
-150 -5z"/>
<path d="M5382 752 c-62 -22 -123 -78 -152 -137 -30 -62 -27 -156 6 -223 103
-208 407 -188 480 32 67 200 -136 398 -334 328z"/>
<path d="M6215 748 c-32 -11 -91 -52 -113 -78 -7 -8 -24 -37 -37 -65 -58 -118
-9 -262 110 -327 178 -96 385 27 385 228 0 109 -78 216 -178 244 -46 12 -128
12 -167 -2z"/>
<path d="M7030 739 c-55 -25 -105 -71 -133 -124 -32 -59 -30 -164 3 -229 79
-154 279 -190 407 -73 142 130 105 348 -71 428 -56 25 -148 24 -206 -2z"/>
<path d="M7876 745 c-139 -49 -207 -221 -142 -360 88 -191 360 -194 458 -6 55
105 29 248 -60 321 -68 56 -173 75 -256 45z"/>
<path d="M8713 741 c-70 -24 -113 -59 -145 -117 -54 -100 -44 -209 29 -293
125 -146 365 -109 441 68 21 50 20 137 -1 193 -25 64 -99 132 -168 152 -67 20
-91 20 -156 -3z"/>
<path d="M9542 742 c-62 -23 -126 -80 -153 -137 -28 -60 -26 -163 5 -223 46
-89 128 -141 225 -142 76 0 125 17 177 63 78 68 108 158 85 254 -36 146 -198
235 -339 185z"/>
</g>
</svg>
